<!--?xml version="1.0" standalone="no"?-->
              <svg id="sw-js-blob-svg" viewBox="0 0 100 100" xmlns="http://www.w3.org/2000/svg" version="1.1">
                    <defs> 
                        <linearGradient id="sw-gradient" x1="0" x2="1" y1="1" y2="0">
                            <stop id="stop1" stop-color="rgba(219.938, 209.864, 205.097, 1)" offset="0%"></stop>
                            <stop id="stop2" stop-color="rgba(247.259, 247.259, 247.259, 1)" offset="100%"></stop>
                        </linearGradient>
                    </defs>
                <path fill="url(#sw-gradient)" d="M24.8,-28.7C30.8,-24.5,33.5,-15.4,33.6,-7.1C33.8,1.3,31.4,9,27.5,16C23.6,23,18.3,29.2,11.8,30.9C5.3,32.6,-2.3,29.8,-9.9,27.1C-17.5,24.4,-25.2,21.7,-31.3,15.8C-37.5,9.9,-42.1,0.8,-40.5,-7C-39,-14.8,-31.2,-21.4,-23.5,-25.3C-15.7,-29.1,-7.8,-30.3,0.8,-31.2C9.4,-32.1,18.8,-32.9,24.8,-28.7Z" width="100%" height="100%" transform="translate(50 50)" stroke-width="0" style="transition: all 0.3s ease 0s;"></path>
              </svg>