<?xml version="1.0" standalone="no"?>
<svg xmlns:xlink="http://www.w3.org/1999/xlink" id="wave" style="transform:rotate(0deg); transition: 0.3s" viewBox="0 0 1440 490" version="1.1" xmlns="http://www.w3.org/2000/svg"><defs><linearGradient id="sw-gradient-0" x1="0" x2="0" y1="1" y2="0"><stop stop-color="rgba(36, 55, 67, 1)" offset="0%"/><stop stop-color="rgba(82, 113, 255, 1)" offset="100%"/></linearGradient></defs><path style="transform:translate(0, 0px); opacity:1" fill="url(#sw-gradient-0)" d="M0,245L80,253.2C160,261,320,278,480,253.2C640,229,800,163,960,138.8C1120,114,1280,131,1440,155.2C1600,180,1760,212,1920,204.2C2080,196,2240,147,2400,106.2C2560,65,2720,33,2880,32.7C3040,33,3200,65,3360,122.5C3520,180,3680,261,3840,302.2C4000,343,4160,343,4320,359.3C4480,376,4640,408,4800,367.5C4960,327,5120,212,5280,155.2C5440,98,5600,98,5760,106.2C5920,114,6080,131,6240,147C6400,163,6560,180,6720,228.7C6880,278,7040,359,7200,326.7C7360,294,7520,147,7680,147C7840,147,8000,294,8160,367.5C8320,441,8480,441,8640,375.7C8800,310,8960,180,9120,179.7C9280,180,9440,310,9600,318.5C9760,327,9920,212,10080,138.8C10240,65,10400,33,10560,32.7C10720,33,10880,65,11040,106.2C11200,147,11360,196,11440,220.5L11520,245L11520,490L11440,490C11360,490,11200,490,11040,490C10880,490,10720,490,10560,490C10400,490,10240,490,10080,490C9920,490,9760,490,9600,490C9440,490,9280,490,9120,490C8960,490,8800,490,8640,490C8480,490,8320,490,8160,490C8000,490,7840,490,7680,490C7520,490,7360,490,7200,490C7040,490,6880,490,6720,490C6560,490,6400,490,6240,490C6080,490,5920,490,5760,490C5600,490,5440,490,5280,490C5120,490,4960,490,4800,490C4640,490,4480,490,4320,490C4160,490,4000,490,3840,490C3680,490,3520,490,3360,490C3200,490,3040,490,2880,490C2720,490,2560,490,2400,490C2240,490,2080,490,1920,490C1760,490,1600,490,1440,490C1280,490,1120,490,960,490C800,490,640,490,480,490C320,490,160,490,80,490L0,490Z"/><defs><linearGradient id="sw-gradient-1" x1="0" x2="0" y1="1" y2="0"><stop stop-color="rgba(36, 55, 67, 1)" offset="0%"/><stop stop-color="rgba(36, 55, 67, 1)" offset="100%"/></linearGradient></defs><path style="transform:translate(0, 50px); opacity:0.9" fill="url(#sw-gradient-1)" d="M0,196L80,236.8C160,278,320,359,480,375.7C640,392,800,343,960,285.8C1120,229,1280,163,1440,130.7C1600,98,1760,98,1920,106.2C2080,114,2240,131,2400,155.2C2560,180,2720,212,2880,220.5C3040,229,3200,212,3360,245C3520,278,3680,359,3840,383.8C4000,408,4160,376,4320,326.7C4480,278,4640,212,4800,212.3C4960,212,5120,278,5280,261.3C5440,245,5600,147,5760,147C5920,147,6080,245,6240,310.3C6400,376,6560,408,6720,408.3C6880,408,7040,376,7200,326.7C7360,278,7520,212,7680,204.2C7840,196,8000,245,8160,261.3C8320,278,8480,261,8640,236.8C8800,212,8960,180,9120,138.8C9280,98,9440,49,9600,40.8C9760,33,9920,65,10080,81.7C10240,98,10400,98,10560,155.2C10720,212,10880,327,11040,310.3C11200,294,11360,147,11440,73.5L11520,0L11520,490L11440,490C11360,490,11200,490,11040,490C10880,490,10720,490,10560,490C10400,490,10240,490,10080,490C9920,490,9760,490,9600,490C9440,490,9280,490,9120,490C8960,490,8800,490,8640,490C8480,490,8320,490,8160,490C8000,490,7840,490,7680,490C7520,490,7360,490,7200,490C7040,490,6880,490,6720,490C6560,490,6400,490,6240,490C6080,490,5920,490,5760,490C5600,490,5440,490,5280,490C5120,490,4960,490,4800,490C4640,490,4480,490,4320,490C4160,490,4000,490,3840,490C3680,490,3520,490,3360,490C3200,490,3040,490,2880,490C2720,490,2560,490,2400,490C2240,490,2080,490,1920,490C1760,490,1600,490,1440,490C1280,490,1120,490,960,490C800,490,640,490,480,490C320,490,160,490,80,490L0,490Z"/></svg>